# xmcd
#
# Track frame offsets: 
#        150
#        19991
#        40463
#        63894
#        81631
#        99122
#        123254
#        144418
#        165604
#        182581
#        199415
#        217261
#        232605
#
# Disc length: 3342 seconds
#
# Revision: 0
# Processed by: cddbd v1.5.2PL0 Copyright (c) Steve Scherf et al.
# Submitted via: ExactAudioCopy v0.99pb4
#
DISCID=b20d0c0d
DTITLE=Dave Hole - Steel On Steel
DYEAR=1995
DGENRE=Blues
TTITLE0=Wildfire
TTITLE1=Quicksand
TTITLE2=Counting My Regrets
TTITLE3=Killing Bite
TTITLE4=Take Me To Chicago
TTITLE5=I Won't Leave
TTITLE6=Worry
TTITLE7=I Found Love
TTITLE8=Going Down
TTITLE9=One Last Breath
TTITLE10=Hook, Line and Sinker
TTITLE11=Cold Rain
TTITLE12=Blues Will Call Your Name
EXTD=
EXTT0=
EXTT1=
EXTT2=
EXTT3=
EXTT4=
EXTT5=
EXTT6=
EXTT7=
EXTT8=
EXTT9=
EXTT10=
EXTT11=
EXTT12=
PLAYORDER=
